REM DIRINDEX 1\5,1\2\7,1\2\8,1\3\9,1\3\10,1\4\11,1\4\12,1\6\13,1\6\14
REM DIRNAME cjc067,folder01,folder02,folder03,folder04,folder05,folder06,folder07,folder08,folder09,folder10,folder11,folder12,folder13
TITLE ""
FILE "Disk3Track12.mp3" MP3
  TRACK 01 AUDIO
    TITLE "13:cjc067_1427"
    INDEX 01 00:00:00
  TRACK 02 AUDIO
    TITLE "0:"
    INDEX 01 00:01:21
  TRACK 03 AUDIO
    TITLE "14:cjc067_1428"
    INDEX 01 00:02:18
  TRACK 04 AUDIO
    TITLE "0:"
    INDEX 01 00:05:48
  TRACK 05 AUDIO
    TITLE "14:cjc067_1429"
    INDEX 01 00:06:55
  TRACK 06 AUDIO
    TITLE "0:"
    INDEX 01 00:09:53
  TRACK 07 AUDIO
    TITLE "14:cjc067_1430"
    INDEX 01 00:10:59
  TRACK 08 AUDIO
    TITLE "0:"
    INDEX 01 00:13:51
  TRACK 09 AUDIO
    TITLE "14:cjc067_1431"
    INDEX 01 00:14:56
  TRACK 10 AUDIO
    TITLE "0:"
    INDEX 01 00:18:03
  TRACK 11 AUDIO
    TITLE "14:cjc067_1432"
    INDEX 01 00:19:07
  TRACK 12 AUDIO
    TITLE "0:"
    INDEX 01 00:21:68
  TRACK 13 AUDIO
    TITLE "14:cjc067_1433"
    INDEX 01 00:22:74
  TRACK 14 AUDIO
    TITLE "0:"
    INDEX 01 00:25:66
  TRACK 15 AUDIO
    TITLE "14:cjc067_1434"
    INDEX 01 00:26:69
  TRACK 16 AUDIO
    TITLE "0:"
    INDEX 01 00:29:62
  TRACK 17 AUDIO
    TITLE "14:cjc067_1435"
    INDEX 01 00:31:08
  TRACK 18 AUDIO
    TITLE "0:"
    INDEX 01 00:34:20
  TRACK 19 AUDIO
    TITLE "14:cjc067_1436"
    INDEX 01 00:35:27
  TRACK 20 AUDIO
    TITLE "0:"
    INDEX 01 00:37:59
  TRACK 21 AUDIO
    TITLE "14:cjc067_1437"
    INDEX 01 00:38:67
  TRACK 22 AUDIO
    TITLE "0:"
    INDEX 01 00:42:41
  TRACK 23 AUDIO
    TITLE "14:cjc067_1438"
    INDEX 01 00:43:46
  TRACK 24 AUDIO
    TITLE "0:"
    INDEX 01 00:46:51
  TRACK 25 AUDIO
    TITLE "14:cjc067_1439"
    INDEX 01 00:47:54
  TRACK 26 AUDIO
    TITLE "0:"
    INDEX 01 00:50:05
  TRACK 27 AUDIO
    TITLE "14:cjc067_1440"
    INDEX 01 00:51:13
  TRACK 28 AUDIO
    TITLE "0:"
    INDEX 01 00:53:41
  TRACK 29 AUDIO
    TITLE "14:cjc067_1441"
    INDEX 01 00:54:44
  TRACK 30 AUDIO
    TITLE "0:"
    INDEX 01 00:57:74
  TRACK 31 AUDIO
    TITLE "14:cjc067_1442"
    INDEX 01 00:59:04
  TRACK 32 AUDIO
    TITLE "0:"
    INDEX 01 01:01:62
  TRACK 33 AUDIO
    TITLE "14:cjc067_1443"
    INDEX 01 01:02:67
  TRACK 34 AUDIO
    TITLE "0:"
    INDEX 01 01:05:05
  TRACK 35 AUDIO
    TITLE "14:cjc067_1444"
    INDEX 01 01:06:10
  TRACK 36 AUDIO
    TITLE "0:"
    INDEX 01 01:10:30
  TRACK 37 AUDIO
    TITLE "14:cjc067_1445"
    INDEX 01 01:11:35
  TRACK 38 AUDIO
    TITLE "0:"
    INDEX 01 01:13:30
  TRACK 39 AUDIO
    TITLE "14:cjc067_1446"
    INDEX 01 01:14:35
  TRACK 40 AUDIO
    TITLE "0:"
    INDEX 01 01:16:18
  TRACK 41 AUDIO
    TITLE "14:cjc067_1447"
    INDEX 01 01:17:24
  TRACK 42 AUDIO
    TITLE "0:"
    INDEX 01 01:19:50
  TRACK 43 AUDIO
    TITLE "14:cjc067_1448"
    INDEX 01 01:20:57
  TRACK 44 AUDIO
    TITLE "0:"
    INDEX 01 01:22:62
  TRACK 45 AUDIO
    TITLE "14:cjc067_1449"
    INDEX 01 01:23:69
  TRACK 46 AUDIO
    TITLE "0:"
    INDEX 01 01:25:60
  TRACK 47 AUDIO
    TITLE "14:cjc067_1450"
    INDEX 01 01:26:72
  TRACK 48 AUDIO
    TITLE "0:"
    INDEX 01 01:29:27
  TRACK 49 AUDIO
    TITLE "14:cjc067_1451"
    INDEX 01 01:30:32
  TRACK 50 AUDIO
    TITLE "0:"
    INDEX 01 01:32:29
  TRACK 51 AUDIO
    TITLE "14:cjc067_1452"
    INDEX 01 01:33:34
  TRACK 52 AUDIO
    TITLE "0:"
    INDEX 01 01:36:23
  TRACK 53 AUDIO
    TITLE "14:cjc067_1453"
    INDEX 01 01:37:26
  TRACK 54 AUDIO
    TITLE "0:"
    INDEX 01 01:39:35
  TRACK 55 AUDIO
    TITLE "14:cjc067_1454"
    INDEX 01 01:40:40
  TRACK 56 AUDIO
    TITLE "0:"
    INDEX 01 01:42:45
  TRACK 57 AUDIO
    TITLE "14:cjc067_1455"
    INDEX 01 01:43:49
  TRACK 58 AUDIO
    TITLE "0:"
    INDEX 01 01:46:57
  TRACK 59 AUDIO
    TITLE "14:cjc067_1456"
    INDEX 01 01:47:62
  TRACK 60 AUDIO
    TITLE "0:"
    INDEX 01 01:50:74
  TRACK 61 AUDIO
    TITLE "14:cjc067_1457"
    INDEX 01 01:52:02
  TRACK 62 AUDIO
    TITLE "0:"
    INDEX 01 01:54:05
  TRACK 63 AUDIO
    TITLE "14:cjc067_1458"
    INDEX 01 01:55:13
  TRACK 64 AUDIO
    TITLE "0:"
    INDEX 01 01:57:62
